name rise44.8762peak52.3436fall86.788.mot
datacolumns 19
datarows 21
range 8.16496700000000 8.19829700000000
endheader
time	ground_force1_vx	ground_force1_vy	ground_force1_vz	ground_force1_px	ground_force1_py	ground_force1_pz	ground_force2_vx	ground_force2_vy	ground_force2_vz	ground_force2_px	ground_force2_py	ground_force2_pz	ground_torque1_x	ground_torque1_y	ground_torque1_z	ground_torque2_x	ground_torque2_y	ground_torque2_z	
8.16496700000000	-5.92950400000000	706.17168600000002	49.18677800000000	0.14840300000000	0.00000000000000	0.10459100000000	0.00000000000000	0.00000000000000	0.00000000000000	0.00000000000000	0.00000000000000	0.00000000000000	0.00000000000000	15.88001000000000	0.00000000000000	0.00000000000000	0.00000000000000	0.00000000000000	
8.16663300000000	-6.23402700000000	707.07267999999999	49.20493000000000	0.14761000000000	0.00000000000000	0.10455000000000	0.00000000000000	0.00000000000000	0.00000000000000	0.00000000000000	0.00000000000000	0.00000000000000	0.00000000000000	15.90426000000000	0.00000000000000	0.00000000000000	0.00000000000000	0.00000000000000	
8.16830400000000	-6.54056800000000	708.01918999999998	49.22820700000000	0.14680900000000	0.00000000000000	0.10451000000000	0.00000000000000	0.00000000000000	0.00000000000000	0.00000000000000	0.00000000000000	0.00000000000000	0.00000000000000	15.93097100000000	0.00000000000000	0.00000000000000	0.00000000000000	0.00000000000000	
8.16996400000000	-6.84945900000000	709.00876000000005	49.25636600000000	0.14600200000000	0.00000000000000	0.10446800000000	0.00000000000000	0.00000000000000	0.00000000000000	0.00000000000000	0.00000000000000	0.00000000000000	0.00000000000000	15.96008200000000	0.00000000000000	0.00000000000000	0.00000000000000	0.00000000000000	
8.17163600000000	-7.16101100000000	710.03890300000000	49.28916900000000	0.14518700000000	0.00000000000000	0.10442700000000	0.00000000000000	0.00000000000000	0.00000000000000	0.00000000000000	0.00000000000000	0.00000000000000	0.00000000000000	15.99153900000000	0.00000000000000	0.00000000000000	0.00000000000000	0.00000000000000	
8.17330300000000	-7.47551300000000	711.10711300000003	49.32637900000000	0.14436500000000	0.00000000000000	0.10438500000000	0.00000000000000	0.00000000000000	0.00000000000000	0.00000000000000	0.00000000000000	0.00000000000000	0.00000000000000	16.02528400000000	0.00000000000000	0.00000000000000	0.00000000000000	0.00000000000000	
8.17496700000000	-7.79323300000000	712.21087499999999	49.36776300000000	0.14353600000000	0.00000000000000	0.10434200000000	0.00000000000000	0.00000000000000	0.00000000000000	0.00000000000000	0.00000000000000	0.00000000000000	0.00000000000000	16.06126500000000	0.00000000000000	0.00000000000000	0.00000000000000	0.00000000000000	
8.17663500000000	-8.11441700000000	713.34767599999998	49.41309300000000	0.14270100000000	0.00000000000000	0.10429900000000	0.00000000000000	0.00000000000000	0.00000000000000	0.00000000000000	0.00000000000000	0.00000000000000	0.00000000000000	16.09943000000000	0.00000000000000	0.00000000000000	0.00000000000000	0.00000000000000	
8.17830100000000	-8.43928700000000	714.51501199999996	49.46214500000000	0.14186000000000	0.00000000000000	0.10425500000000	0.00000000000000	0.00000000000000	0.00000000000000	0.00000000000000	0.00000000000000	0.00000000000000	0.00000000000000	16.13972700000000	0.00000000000000	0.00000000000000	0.00000000000000	0.00000000000000	
8.17996500000000	-8.76804200000000	715.71039800000005	49.51470400000000	0.14101300000000	0.00000000000000	0.10421000000000	0.00000000000000	0.00000000000000	0.00000000000000	0.00000000000000	0.00000000000000	0.00000000000000	0.00000000000000	16.18210900000000	0.00000000000000	0.00000000000000	0.00000000000000	0.00000000000000	
8.18163100000000	-9.10085700000000	716.93137800000000	49.57055900000000	0.14016100000000	0.00000000000000	0.10416400000000	0.00000000000000	0.00000000000000	0.00000000000000	0.00000000000000	0.00000000000000	0.00000000000000	0.00000000000000	16.22652600000000	0.00000000000000	0.00000000000000	0.00000000000000	0.00000000000000	
8.18329800000000	-9.43788300000000	718.17553499999997	49.62950800000000	0.13930500000000	0.00000000000000	0.10411700000000	0.00000000000000	0.00000000000000	0.00000000000000	0.00000000000000	0.00000000000000	0.00000000000000	0.00000000000000	16.27293300000000	0.00000000000000	0.00000000000000	0.00000000000000	0.00000000000000	
8.18496900000000	-9.77924700000000	719.44049600000005	49.69135500000000	0.13844600000000	0.00000000000000	0.10406900000000	0.00000000000000	0.00000000000000	0.00000000000000	0.00000000000000	0.00000000000000	0.00000000000000	0.00000000000000	16.32128400000000	0.00000000000000	0.00000000000000	0.00000000000000	0.00000000000000	
8.18663500000000	-10.12505400000000	720.72394299999996	49.75591500000000	0.13758400000000	0.00000000000000	0.10402000000000	0.00000000000000	0.00000000000000	0.00000000000000	0.00000000000000	0.00000000000000	0.00000000000000	0.00000000000000	16.37153400000000	0.00000000000000	0.00000000000000	0.00000000000000	0.00000000000000	
8.18830200000000	-10.47538500000000	722.02361800000006	49.82301200000000	0.13672000000000	0.00000000000000	0.10397000000000	0.00000000000000	0.00000000000000	0.00000000000000	0.00000000000000	0.00000000000000	0.00000000000000	0.00000000000000	16.42363800000000	0.00000000000000	0.00000000000000	0.00000000000000	0.00000000000000	
8.18996900000000	-10.83029600000000	723.33733299999994	49.89247900000000	0.13585500000000	0.00000000000000	0.10391800000000	0.00000000000000	0.00000000000000	0.00000000000000	0.00000000000000	0.00000000000000	0.00000000000000	0.00000000000000	16.47755100000000	0.00000000000000	0.00000000000000	0.00000000000000	0.00000000000000	
8.19164300000000	-11.18982400000000	724.66297499999996	49.96416100000000	0.13499100000000	0.00000000000000	0.10386500000000	0.00000000000000	0.00000000000000	0.00000000000000	0.00000000000000	0.00000000000000	0.00000000000000	0.00000000000000	16.53323100000000	0.00000000000000	0.00000000000000	0.00000000000000	0.00000000000000	
8.19329900000000	-11.55398200000000	725.99851200000001	50.03791100000000	0.13412700000000	0.00000000000000	0.10381100000000	0.00000000000000	0.00000000000000	0.00000000000000	0.00000000000000	0.00000000000000	0.00000000000000	0.00000000000000	16.59063100000000	0.00000000000000	0.00000000000000	0.00000000000000	0.00000000000000	
8.19496700000000	-11.92276100000000	727.34199899999999	50.11359700000000	0.13326500000000	0.00000000000000	0.10375500000000	0.00000000000000	0.00000000000000	0.00000000000000	0.00000000000000	0.00000000000000	0.00000000000000	0.00000000000000	16.64970800000000	0.00000000000000	0.00000000000000	0.00000000000000	0.00000000000000	
8.19664300000000	-12.29613500000000	728.69158100000004	50.19109500000000	0.13240600000000	0.00000000000000	0.10369800000000	0.00000000000000	0.00000000000000	0.00000000000000	0.00000000000000	0.00000000000000	0.00000000000000	0.00000000000000	16.71041600000000	0.00000000000000	0.00000000000000	0.00000000000000	0.00000000000000	
8.19829700000000	-12.67405400000000	730.04550200000006	50.27029700000000	0.13155000000000	0.00000000000000	0.10363800000000	0.00000000000000	0.00000000000000	0.00000000000000	0.00000000000000	0.00000000000000	0.00000000000000	0.00000000000000	16.77270800000000	0.00000000000000	0.00000000000000	0.00000000000000	0.00000000000000	
